<svg viewBox="0 0 200 40" fill="none" xmlns="http://www.w3.org/2000/svg">
  <g transform="translate(4, 1) scale(0.56)"><g stroke="currentColor" stroke-width="6.6" stroke-linecap="round" stroke-linejoin="round" fill="none">
    <path d="M32 42 C32 35 43 35 43 42 C43 51 29 54 23 46 C16 36 25 28 35 29 C47 29 54 38 53 46 C52 56 43 60 31 59 C17 58 9 51 10 41 C10 33 16 28 21 28"/>
    <path d="M22 25 V16 A10 10 0 0 1 42 16 V25"/>
  </g></g>
  <text x="48" y="27" font-family="Inter,system-ui,sans-serif" font-size="20" font-weight="700" letter-spacing="-0.4" fill="currentColor">KiwiCaptcha</text>
</svg>
